<svg viewBox="0 0 19 17.7324" xmlns="http://www.w3.org/2000/svg" xmlns:xlink="http://www.w3.org/1999/xlink" width="19.000000" height="17.732422" fill="none" customFrame="#000000">
	<g id="Group 18545">
		<path id="Ellipse 3" d="M6.5 15.3662C4.70507 15.3662 3.17301 14.7316 1.90381 13.4624C0.634602 12.1932 -1.78814e-07 10.6611 -4.76837e-07 8.86621C-1.78814e-07 7.07129 0.634602 5.53922 1.90381 4.27002C3.17301 3.00081 4.70507 2.36621 6.5 2.36621L9.5 2.36621L9.5 3.36621L6.5 3.36621C4.98122 3.36621 3.68485 3.90318 2.61091 4.97712C1.53697 6.05106 1 7.34743 1 8.86621C1 10.385 1.53697 11.6814 2.61091 12.7553C3.68485 13.8292 4.98122 14.3662 6.5 14.3662L6.5 15.3662ZM5.5359 2.86621L5.5359 0.00018549L10.5 2.86621L5.5359 5.73224L5.5359 2.86621L6.5359 2.86621L6.5359 4.86621L6.0359 4.86621L5.7859 4.4332L9.25 2.4332L9.5 2.86621L9.25 3.29922L5.7859 1.29922L6.0359 0.866211L6.5359 0.866211L6.5359 2.86621L5.5359 2.86621ZM6.0359 2.86621L6.0359 0.866211L9.5 2.86621L6.0359 4.86621L6.0359 2.86621Z" fill="rgb(255,255,255)" fill-rule="nonzero" />
		<path id="Ellipse 4" d="M6 12.5C4.20507 12.5 2.67301 11.8654 1.40381 10.5962C0.134602 9.32699 -0.5 7.79492 -0.5 6C-0.5 4.20508 0.134602 2.67301 1.40381 1.40381C2.67301 0.134602 4.20507 -0.5 6 -0.5L9 -0.5L9 0.5L6 0.5C4.48122 0.5 3.18485 1.03697 2.11091 2.11091C1.03697 3.18485 0.5 4.48122 0.5 6C0.5 7.51878 1.03697 8.81514 2.11091 9.88909C3.18485 10.963 4.48122 11.5 6 11.5L6 12.5ZM5.0359 0L5.0359 -2.86603L10 -5.96046e-08L5.0359 2.86603L5.0359 0L6.0359 0L6.0359 2L5.5359 2L5.2859 1.56699L8.75 -0.433013L9 0L8.75 0.433013L5.2859 -1.56699L5.5359 -2L6.0359 -2L6.0359 0L5.0359 0ZM5.5359 0L5.5359 -2L9 0L5.5359 2L5.5359 0Z" fill="rgb(255,255,255)" fill-rule="nonzero" transform="matrix(-1,0,0,-1,18.5,14.8662)" />
	</g>
</svg>
